<svg width="36" height="36" viewBox="0 0 36 36" fill="none" xmlns="http://www.w3.org/2000/svg">
<path d="M3 7.87598H33V28.126H3V7.87598ZM18 12.9385C19.3261 12.9385 20.5979 13.4718 21.5355 14.4212C22.4732 15.3707 23 16.6583 23 18.001C23 19.3436 22.4732 20.6313 21.5355 21.5807C20.5979 22.5301 19.3261 23.0635 18 23.0635C16.6739 23.0635 15.4021 22.5301 14.4645 21.5807C13.5268 20.6313 13 19.3436 13 18.001C13 16.6583 13.5268 15.3707 14.4645 14.4212C15.4021 13.4718 16.6739 12.9385 18 12.9385ZM9.66667 11.251C9.66667 12.1461 9.31548 13.0045 8.69036 13.6375C8.06523 14.2704 7.21739 14.626 6.33333 14.626V21.376C7.21739 21.376 8.06523 21.7316 8.69036 22.3645C9.31548 22.9974 9.66667 23.8559 9.66667 24.751H26.3333C26.3333 23.8559 26.6845 22.9974 27.3096 22.3645C27.9348 21.7316 28.7826 21.376 29.6667 21.376V14.626C28.7826 14.626 27.9348 14.2704 27.3096 13.6375C26.6845 13.0045 26.3333 12.1461 26.3333 11.251H9.66667Z" fill="#F7BE80"/>
</svg>
