<svg width="36" height="36" viewBox="0 0 36 36" fill="none" xmlns="http://www.w3.org/2000/svg">
<path d="M18 30.001C21.1826 30.001 24.2348 28.7367 26.4853 26.4863C28.7357 24.2358 30 21.1836 30 18.001C30 14.8184 28.7357 11.7661 26.4853 9.5157C24.2348 7.26526 21.1826 6.00098 18 6.00098C14.8174 6.00098 11.7652 7.26526 9.51472 9.5157C7.26428 11.7661 6 14.8184 6 18.001C6 21.1836 7.26428 24.2358 9.51472 26.4863C11.7652 28.7367 14.8174 30.001 18 30.001ZM18 3.00098C19.9698 3.00098 21.9204 3.38896 23.7403 4.14278C25.5601 4.8966 27.2137 6.0015 28.6066 7.39437C29.9995 8.78725 31.1044 10.4408 31.8582 12.2607C32.612 14.0806 33 16.0311 33 18.001C33 21.9792 31.4196 25.7945 28.6066 28.6076C25.7936 31.4206 21.9782 33.001 18 33.001C9.705 33.001 3 26.251 3 18.001C3 14.0227 4.58035 10.2074 7.3934 7.39437C10.2064 4.58133 14.0218 3.00098 18 3.00098ZM18.75 10.501V18.376L25.5 22.381L24.375 24.226L16.5 19.501V10.501H18.75Z" fill="#F8C690"/>
</svg>
