<svg width="163" height="83" viewBox="0 0 163 83" fill="none" xmlns="http://www.w3.org/2000/svg">
<path d="M119.267 81.8834C135.327 81.8834 148.346 68.8642 148.346 52.8043C148.346 36.7443 135.327 23.7251 119.267 23.7251C103.207 23.7251 90.1875 36.7443 90.1875 52.8043C90.1875 68.8642 103.207 81.8834 119.267 81.8834Z" stroke="#EE7203" stroke-miterlimit="10"/>
<path d="M119.267 60.1458C135.327 60.1458 148.346 56.3514 148.346 51.6708C148.346 46.9902 135.327 43.1958 119.267 43.1958C103.207 43.1958 90.1875 46.9902 90.1875 51.6708C90.1875 56.3514 103.207 60.1458 119.267 60.1458Z" stroke="#EE7203" stroke-width="0.5" stroke-miterlimit="10"/>
<path d="M58.6916 1.125H0.708313V59.1083H58.6916V1.125Z" stroke="#EE7203" stroke-linecap="round" stroke-linejoin="round"/>
<path d="M77.9208 30.1793V26.7251H79.1541C79.4208 26.7251 79.6458 26.7751 79.8208 26.8709C79.9958 26.9709 80.1291 27.1043 80.2166 27.2709C80.3041 27.4418 80.3499 27.6293 80.3499 27.8418C80.3499 28.0543 80.3041 28.2459 80.2166 28.4126C80.1291 28.5834 79.9958 28.7168 79.8166 28.8126C79.6374 28.9126 79.4166 28.9584 79.1499 28.9584H78.3041V28.5168H79.1041C79.2749 28.5168 79.4124 28.4876 79.5166 28.4293C79.6208 28.3709 79.6999 28.2876 79.7499 28.1876C79.7999 28.0876 79.8249 27.9709 79.8249 27.8376C79.8249 27.7043 79.7999 27.5918 79.7499 27.4918C79.6999 27.3918 79.6208 27.3126 79.5166 27.2543C79.4124 27.1959 79.2708 27.1668 79.0958 27.1668H78.4416V30.1751H77.9208V30.1793Z" fill="white"/>
<path d="M81.9749 30.2331C81.7333 30.2331 81.5208 30.1789 81.3374 30.0664C81.1583 29.9539 81.0166 29.7998 80.9166 29.5998C80.8166 29.3998 80.7666 29.1664 80.7666 28.8998C80.7666 28.6331 80.8166 28.3956 80.9166 28.1956C81.0166 27.9956 81.1583 27.8373 81.3374 27.7248C81.5166 27.6123 81.7291 27.5581 81.9749 27.5581C82.2208 27.5581 82.4291 27.6123 82.6124 27.7248C82.7916 27.8373 82.9333 27.9914 83.0333 28.1956C83.1333 28.3998 83.1833 28.6331 83.1833 28.8998C83.1833 29.1664 83.1333 29.3998 83.0333 29.5998C82.9333 29.7998 82.7916 29.9539 82.6124 30.0664C82.4333 30.1789 82.2208 30.2331 81.9749 30.2331ZM81.9749 29.8081C82.1333 29.8081 82.2624 29.7664 82.3666 29.6831C82.4708 29.5998 82.5458 29.4873 82.5958 29.3498C82.6458 29.2123 82.6708 29.0581 82.6708 28.8914C82.6708 28.7248 82.6458 28.5748 82.5958 28.4373C82.5458 28.2998 82.4708 28.1873 82.3666 28.1039C82.2624 28.0206 82.1333 27.9789 81.9749 27.9789C81.8166 27.9789 81.6833 28.0206 81.5833 28.1039C81.4791 28.1873 81.4041 28.2998 81.3541 28.4373C81.3041 28.5748 81.2791 28.7289 81.2791 28.8914C81.2791 29.0539 81.3041 29.2123 81.3541 29.3498C81.4041 29.4873 81.4791 29.5998 81.5833 29.6831C81.6874 29.7664 81.8166 29.8081 81.9749 29.8081Z" fill="white"/>
<path d="M85.6833 28.2206L85.225 28.2998C85.2042 28.2415 85.175 28.1873 85.1333 28.1331C85.0917 28.079 85.0375 28.0373 84.9667 28.004C84.8958 27.9706 84.8083 27.954 84.7042 27.954C84.5625 27.954 84.4417 27.9873 84.3458 28.0498C84.25 28.1123 84.2042 28.1956 84.2042 28.2956C84.2042 28.3831 84.2375 28.454 84.3 28.504C84.3625 28.5581 84.4667 28.5998 84.6125 28.6331L85.025 28.729C85.2625 28.7831 85.4417 28.8706 85.5583 28.9831C85.675 29.0956 85.7333 29.2456 85.7333 29.429C85.7333 29.5831 85.6875 29.7206 85.6 29.8415C85.5125 29.9623 85.3875 30.0581 85.2292 30.1248C85.0708 30.1956 84.8875 30.229 84.675 30.229C84.3833 30.229 84.15 30.1665 83.9667 30.0415C83.7833 29.9165 83.6708 29.7415 83.6292 29.5123L84.1167 29.4373C84.1458 29.5623 84.2083 29.6581 84.3042 29.7248C84.4 29.7915 84.5208 29.8206 84.675 29.8206C84.8417 29.8206 84.9708 29.7873 85.0708 29.7165C85.1708 29.6456 85.2208 29.5623 85.2208 29.4623C85.2208 29.3831 85.1917 29.3123 85.1292 29.2581C85.0708 29.204 84.9792 29.1623 84.8542 29.1331L84.4167 29.0373C84.175 28.9831 83.9958 28.8956 83.8792 28.7748C83.7625 28.654 83.7083 28.504 83.7083 28.3165C83.7083 28.1623 83.75 28.029 83.8375 27.9165C83.925 27.804 84.0417 27.7123 84.1917 27.6456C84.3417 27.5831 84.5167 27.5498 84.7083 27.5498C84.9875 27.5498 85.2083 27.6123 85.3708 27.7331C85.5333 27.854 85.6375 28.0165 85.6917 28.2165L85.6833 28.2206Z" fill="white"/>
<path d="M87.4958 27.5876V27.9918H86.0791V27.5876H87.4958ZM86.4583 26.9668H86.9624V29.4168C86.9624 29.5126 86.9749 29.5876 87.0083 29.6376C87.0416 29.6876 87.0749 29.721 87.1208 29.7376C87.1666 29.7543 87.2166 29.7626 87.2749 29.7626C87.3166 29.7626 87.3499 29.7626 87.3833 29.7543C87.4124 29.7501 87.4374 29.746 87.4541 29.7418L87.5458 30.1585C87.5166 30.171 87.4749 30.1835 87.4208 30.1918C87.3666 30.2043 87.2999 30.2085 87.2166 30.2126C87.0833 30.2126 86.9583 30.1918 86.8458 30.1418C86.7333 30.0918 86.6374 30.0168 86.5666 29.9126C86.4958 29.8085 86.4624 29.6793 86.4624 29.521V26.9668H86.4583Z" fill="white"/>
<path d="M89.1125 31.2039C88.9083 31.2039 88.7291 31.1789 88.5833 31.1248C88.4375 31.0706 88.3166 30.9998 88.2208 30.9123C88.125 30.8248 88.0583 30.7248 88.0125 30.6206L88.4458 30.4414C88.475 30.4914 88.5166 30.5414 88.5666 30.5998C88.6166 30.6539 88.6875 30.7039 88.775 30.7414C88.8625 30.7789 88.9791 30.7998 89.1166 30.7998C89.3083 30.7998 89.4666 30.7539 89.5916 30.6623C89.7167 30.5706 89.7791 30.4206 89.7791 30.2206V29.7123H89.7458C89.7166 29.7664 89.6708 29.8289 89.6166 29.8956C89.5583 29.9623 89.4833 30.0206 89.3833 30.0706C89.2833 30.1206 89.1541 30.1456 88.9958 30.1456C88.7916 30.1456 88.6083 30.0956 88.4416 29.9998C88.2791 29.9039 88.15 29.7623 88.0541 29.5748C87.9583 29.3873 87.9125 29.1539 87.9125 28.8789C87.9125 28.6039 87.9583 28.3664 88.0541 28.1706C88.15 27.9748 88.275 27.8248 88.4416 27.7164C88.6083 27.6081 88.7916 27.5581 89 27.5581C89.1625 27.5581 89.2916 27.5831 89.3916 27.6373C89.4916 27.6914 89.5666 27.7539 89.625 27.8248C89.6833 27.8956 89.725 27.9581 89.7541 28.0123H89.7916V27.5914H90.2875V30.2414C90.2875 30.4623 90.2375 30.6456 90.1333 30.7914C90.0291 30.9331 89.8916 31.0414 89.7125 31.1081C89.5375 31.1748 89.3375 31.2123 89.1166 31.2123L89.1125 31.2039ZM89.1083 29.7206C89.2541 29.7206 89.375 29.6873 89.475 29.6206C89.575 29.5539 89.65 29.4539 89.7041 29.3289C89.7583 29.2039 89.7833 29.0498 89.7833 28.8706C89.7833 28.6914 89.7583 28.5414 89.7041 28.4081C89.6541 28.2748 89.575 28.1706 89.475 28.0956C89.375 28.0206 89.25 27.9831 89.1041 27.9831C88.9583 27.9831 88.825 28.0206 88.725 28.0998C88.625 28.1789 88.5458 28.2831 88.4958 28.4164C88.4458 28.5498 88.4208 28.6998 88.4208 28.8664C88.4208 29.0331 88.4458 29.1873 88.5 29.3123C88.55 29.4414 88.6291 29.5414 88.7291 29.6123C88.8291 29.6831 88.9583 29.7206 89.1041 29.7206H89.1083Z" fill="white"/>
<path d="M90.9583 30.179V27.5873H91.4458V27.9998H91.4708C91.5166 27.8623 91.5999 27.7498 91.7207 27.6706C91.8416 27.5915 91.9749 27.5498 92.1291 27.5498C92.1624 27.5498 92.1999 27.5498 92.2416 27.5498C92.2832 27.5498 92.3207 27.554 92.3416 27.5581V28.0415C92.3416 28.0415 92.2874 28.029 92.2333 28.0206C92.1833 28.0123 92.1291 28.0081 92.0791 28.0081C91.9582 28.0081 91.8541 28.0331 91.7624 28.0831C91.6707 28.1331 91.5957 28.204 91.5416 28.2915C91.4874 28.379 91.4624 28.479 91.4624 28.5915V30.1748H90.9583V30.179Z" fill="white"/>
<path d="M93.5125 30.2375C93.35 30.2375 93.2 30.2084 93.0666 30.1459C92.9333 30.0834 92.8291 29.9959 92.75 29.8792C92.6708 29.7625 92.6333 29.6209 92.6333 29.45C92.6333 29.3042 92.6625 29.1834 92.7166 29.0875C92.7708 28.9917 92.85 28.9167 92.9458 28.8625C93.0416 28.8084 93.15 28.7667 93.2666 28.7375C93.3833 28.7084 93.5041 28.6875 93.6291 28.675C93.7833 28.6584 93.9083 28.6417 94.0083 28.6292C94.1083 28.6167 94.175 28.6 94.2208 28.5709C94.2666 28.5459 94.2875 28.5 94.2875 28.4375V28.425C94.2875 28.2792 94.2458 28.1625 94.1625 28.0834C94.0791 28.0042 93.9583 27.9625 93.7958 27.9625C93.6333 27.9625 93.4916 28 93.3958 28.075C93.3 28.15 93.2333 28.2334 93.1958 28.325L92.7208 28.2167C92.7791 28.0584 92.8583 27.9334 92.9666 27.8334C93.075 27.7375 93.2 27.6667 93.3416 27.6209C93.4833 27.575 93.6333 27.5542 93.7875 27.5542C93.8916 27.5542 94 27.5667 94.1166 27.5917C94.2333 27.6167 94.3416 27.6584 94.4458 27.725C94.5458 27.7875 94.6291 27.8792 94.6958 28C94.7625 28.1209 94.7916 28.2709 94.7916 28.4625V30.1834H94.3V29.8292H94.2791C94.2458 29.8959 94.1958 29.9584 94.1333 30.0209C94.0666 30.0834 93.9833 30.1375 93.8833 30.1792C93.7791 30.2209 93.6583 30.2417 93.5166 30.2417L93.5125 30.2375ZM93.6208 29.8334C93.7583 29.8334 93.8791 29.8042 93.9791 29.75C94.0791 29.6959 94.1541 29.6209 94.2083 29.5334C94.2625 29.4459 94.2875 29.35 94.2875 29.2459V28.9125C94.2875 28.9125 94.2333 28.9459 94.1833 28.9625C94.1333 28.9792 94.075 28.9917 94.0083 29C93.9416 29.0125 93.8791 29.0209 93.8166 29.0292C93.7541 29.0375 93.7041 29.0459 93.6625 29.05C93.5666 29.0625 93.475 29.0834 93.3958 29.1125C93.3166 29.1417 93.25 29.1834 93.2041 29.2375C93.1583 29.2917 93.1333 29.3625 93.1333 29.4542C93.1333 29.5792 93.1791 29.675 93.2708 29.7375C93.3625 29.8 93.4791 29.8334 93.625 29.8334H93.6208Z" fill="white"/>
<path d="M96.4333 30.229C96.225 30.229 96.0375 30.1749 95.875 30.0665C95.7125 29.9582 95.5833 29.804 95.4916 29.604C95.4 29.404 95.3541 29.1665 95.3541 28.8832C95.3541 28.5999 95.4 28.3624 95.4958 28.1665C95.5916 27.9665 95.7166 27.8165 95.8833 27.7082C96.0458 27.604 96.2333 27.5499 96.4416 27.5499C96.6041 27.5499 96.7333 27.5749 96.8291 27.629C96.9291 27.6832 97.0041 27.7457 97.0583 27.8165C97.1125 27.8874 97.1541 27.9499 97.1875 28.004H97.2166V26.7207H97.7208V30.1749H97.2291V29.7707H97.1875C97.1583 29.8249 97.1125 29.8874 97.0583 29.9582C97 30.029 96.925 30.0915 96.825 30.1457C96.725 30.1999 96.6 30.2249 96.4416 30.2249L96.4333 30.229ZM96.5458 29.7999C96.6916 29.7999 96.8125 29.7624 96.9125 29.6832C97.0125 29.604 97.0875 29.4999 97.1416 29.3624C97.1958 29.2249 97.2208 29.0665 97.2208 28.8832C97.2208 28.6999 97.1958 28.5457 97.1416 28.4124C97.0875 28.279 97.0125 28.1707 96.9125 28.0957C96.8125 28.0207 96.6875 27.9832 96.5416 27.9832C96.3958 27.9832 96.2625 28.0207 96.1625 28.0999C96.0625 28.179 95.9833 28.2874 95.9333 28.4207C95.8833 28.5582 95.8583 28.7124 95.8583 28.8832C95.8583 29.054 95.8833 29.2124 95.9375 29.3499C95.9916 29.4874 96.0666 29.5957 96.1666 29.679C96.2666 29.7624 96.3958 29.7999 96.5416 29.7999H96.5458Z" fill="white"/>
<path d="M99.525 30.2331C99.2833 30.2331 99.0708 30.1789 98.8875 30.0664C98.7042 29.9539 98.5667 29.7998 98.4667 29.5998C98.3667 29.3998 98.3167 29.1664 98.3167 28.8998C98.3167 28.6331 98.3667 28.3956 98.4667 28.1956C98.5667 27.9956 98.7083 27.8373 98.8875 27.7248C99.0667 27.6123 99.2792 27.5581 99.525 27.5581C99.7708 27.5581 99.9792 27.6123 100.162 27.7248C100.342 27.8373 100.483 27.9914 100.583 28.1956C100.683 28.3998 100.733 28.6331 100.733 28.8998C100.733 29.1664 100.683 29.3998 100.583 29.5998C100.483 29.7998 100.342 29.9539 100.162 30.0664C99.9833 30.1789 99.7708 30.2331 99.525 30.2331ZM99.525 29.8081C99.6833 29.8081 99.8125 29.7664 99.9167 29.6831C100.021 29.5998 100.096 29.4873 100.146 29.3498C100.196 29.2123 100.221 29.0581 100.221 28.8914C100.221 28.7248 100.196 28.5748 100.146 28.4373C100.096 28.2998 100.021 28.1873 99.9167 28.1039C99.8125 28.0206 99.6833 27.9789 99.525 27.9789C99.3667 27.9789 99.2333 28.0206 99.1292 28.1039C99.025 28.1873 98.95 28.2998 98.9 28.4373C98.85 28.5748 98.825 28.7289 98.825 28.8914C98.825 29.0539 98.85 29.2123 98.9 29.3498C98.95 29.4873 99.025 29.5998 99.1292 29.6831C99.2333 29.7664 99.3625 29.8081 99.525 29.8081Z" fill="white"/>
<path d="M103.671 30.2334C103.417 30.2334 103.196 30.1792 103.012 30.0667C102.829 29.9584 102.687 29.8042 102.587 29.6042C102.487 29.4042 102.437 29.1709 102.437 28.9C102.437 28.6292 102.487 28.4 102.587 28.2C102.687 27.9959 102.825 27.8417 103.004 27.725C103.183 27.6084 103.392 27.5542 103.633 27.5542C103.779 27.5542 103.921 27.5792 104.058 27.625C104.196 27.675 104.317 27.75 104.429 27.8542C104.537 27.9584 104.625 28.0917 104.687 28.2584C104.75 28.425 104.783 28.625 104.783 28.8584V29.0375H102.725V28.6584H104.292C104.292 28.525 104.267 28.4084 104.212 28.3042C104.158 28.2 104.083 28.1209 103.987 28.0625C103.892 28.0042 103.775 27.975 103.646 27.975C103.504 27.975 103.379 28.0084 103.275 28.0792C103.171 28.15 103.087 28.2375 103.033 28.35C102.975 28.4625 102.95 28.5792 102.95 28.7084V29.0042C102.95 29.1792 102.979 29.325 103.042 29.4459C103.104 29.5667 103.187 29.6584 103.3 29.725C103.408 29.7875 103.537 29.8209 103.687 29.8209C103.783 29.8209 103.871 29.8084 103.95 29.7792C104.029 29.75 104.096 29.7084 104.154 29.6542C104.212 29.6 104.254 29.5334 104.287 29.45L104.767 29.5375C104.729 29.6792 104.658 29.8 104.562 29.9042C104.462 30.0084 104.342 30.0917 104.192 30.15C104.046 30.2084 103.875 30.2375 103.687 30.2375L103.671 30.2334Z" fill="white"/>
<path d="M105.85 28.6417V30.1792H105.346V27.5875H105.829V28.0084H105.862C105.921 27.8709 106.017 27.7625 106.142 27.6792C106.271 27.5959 106.429 27.5542 106.625 27.5542C106.8 27.5542 106.954 27.5917 107.087 27.6667C107.221 27.7417 107.325 27.85 107.396 27.9959C107.471 28.1417 107.504 28.3209 107.504 28.5334V30.1792H107V28.5917C107 28.4042 106.95 28.2584 106.854 28.15C106.754 28.0417 106.621 27.9917 106.45 27.9917C106.333 27.9917 106.229 28.0167 106.137 28.0667C106.046 28.1167 105.975 28.1917 105.925 28.2875C105.871 28.3834 105.846 28.5 105.846 28.6375L105.85 28.6417Z" fill="white"/>
<path d="M111.7 26.7251H112.225V28.9959C112.225 29.2376 112.167 29.4501 112.054 29.6376C111.942 29.8251 111.779 29.9709 111.575 30.0751C111.371 30.1793 111.129 30.2334 110.85 30.2334C110.571 30.2334 110.333 30.1793 110.129 30.0751C109.925 29.9668 109.762 29.8209 109.65 29.6376C109.537 29.4501 109.479 29.2376 109.479 28.9959V26.7251H110V28.9543C110 29.1084 110.033 29.2501 110.104 29.3709C110.175 29.4918 110.271 29.5876 110.4 29.6584C110.525 29.7293 110.679 29.7626 110.854 29.7626C111.029 29.7626 111.179 29.7293 111.308 29.6584C111.437 29.5876 111.533 29.4959 111.6 29.3709C111.667 29.2501 111.7 29.1126 111.7 28.9543V26.7251Z" fill="white"/>
<path d="M113.346 26.7251L114.171 28.0751H114.196L115.021 26.7251H115.625L114.55 28.4501L115.633 30.1793H115.025L114.196 28.8459H114.171L113.342 30.1793H112.733L113.833 28.4501L112.737 26.7251H113.342H113.346Z" fill="white"/>
<path d="M117.421 26.5625L116.308 30.7H115.858L116.971 26.5625H117.421Z" fill="white"/>
<path d="M120.112 26.7251H120.633V28.9959C120.633 29.2376 120.575 29.4501 120.462 29.6376C120.35 29.8251 120.187 29.9709 119.983 30.0751C119.779 30.1793 119.537 30.2334 119.258 30.2334C118.979 30.2334 118.742 30.1793 118.537 30.0751C118.333 29.9668 118.171 29.8209 118.058 29.6376C117.946 29.4543 117.887 29.2376 117.887 28.9959V26.7251H118.408V28.9543C118.408 29.1084 118.442 29.2501 118.512 29.3709C118.583 29.4918 118.679 29.5876 118.808 29.6584C118.933 29.7293 119.087 29.7626 119.258 29.7626C119.429 29.7626 119.583 29.7293 119.712 29.6584C119.842 29.5876 119.937 29.4959 120.004 29.3709C120.071 29.2501 120.104 29.1126 120.104 28.9543V26.7251H120.112Z" fill="white"/>
<path d="M121.917 26.7251V30.1793H121.396V26.7251H121.917Z" fill="white"/>
<path d="M78.1958 35.8999C78.1208 35.8999 78.0499 35.8957 77.9916 35.8832C77.9333 35.8707 77.8833 35.8582 77.8541 35.8457L77.9749 35.4332C78.0666 35.4582 78.1499 35.4707 78.2208 35.4665C78.2916 35.4624 78.3583 35.4374 78.4124 35.3874C78.4666 35.3374 78.5166 35.254 78.5583 35.1415L78.6208 34.9707L77.6749 32.3457H78.2166L78.8708 34.3582H78.8958L79.5499 32.3457H80.0916L79.0249 35.2832C78.9749 35.4165 78.9124 35.5332 78.8374 35.6249C78.7624 35.7207 78.6708 35.7874 78.5624 35.8374C78.4583 35.8832 78.3333 35.9082 78.1958 35.9082V35.8999Z" fill="white"/>
<path d="M82.9874 34.9293H81.8707V31.4751H83.0249C83.3624 31.4751 83.6541 31.5459 83.8957 31.6834C84.1374 31.8209 84.3249 32.0168 84.4541 32.2751C84.5832 32.5334 84.6499 32.8418 84.6499 33.2001C84.6499 33.5584 84.5832 33.8709 84.4541 34.1293C84.3249 34.3876 84.1332 34.5876 83.8874 34.7251C83.6416 34.8626 83.3416 34.9334 82.9916 34.9334L82.9874 34.9293ZM82.3916 34.4751H82.9582C83.2207 34.4751 83.4416 34.4251 83.6124 34.3251C83.7874 34.2251 83.9166 34.0793 84.0041 33.8918C84.0916 33.7043 84.1332 33.4709 84.1332 33.1959C84.1332 32.9209 84.0916 32.6959 84.0041 32.5043C83.9166 32.3168 83.7916 32.1709 83.6207 32.0751C83.4499 31.9793 83.2416 31.9293 82.9874 31.9293H82.3874V34.4709L82.3916 34.4751Z" fill="white"/>
<path d="M86.3708 34.979C86.1166 34.979 85.8958 34.9248 85.7124 34.8123C85.5291 34.704 85.3875 34.5498 85.2875 34.3498C85.1875 34.1498 85.1375 33.9165 85.1375 33.6456C85.1375 33.3748 85.1875 33.1456 85.2875 32.9456C85.3875 32.7415 85.525 32.5873 85.7041 32.4706C85.8833 32.354 86.0916 32.2998 86.3333 32.2998C86.4791 32.2998 86.6208 32.3248 86.7583 32.3706C86.8958 32.4206 87.0166 32.4956 87.1291 32.5998C87.2375 32.704 87.325 32.8373 87.3875 33.004C87.45 33.1706 87.4833 33.3706 87.4833 33.604V33.7831H85.425V33.404H86.9916C86.9916 33.2706 86.9666 33.154 86.9125 33.0498C86.8583 32.9456 86.7833 32.8665 86.6875 32.8081C86.5916 32.7498 86.475 32.7206 86.3458 32.7206C86.2041 32.7206 86.0791 32.754 85.975 32.8248C85.8708 32.8956 85.7874 32.9831 85.7333 33.0956C85.6749 33.2081 85.65 33.3248 85.65 33.454V33.7498C85.65 33.9248 85.6791 34.0706 85.7416 34.1915C85.8041 34.3123 85.8874 34.404 85.9999 34.4706C86.1083 34.5331 86.2375 34.5665 86.3875 34.5665C86.4833 34.5665 86.5708 34.554 86.6499 34.5248C86.7291 34.4956 86.7958 34.454 86.8541 34.3998C86.9125 34.3456 86.9541 34.279 86.9875 34.1956L87.4666 34.2831C87.4291 34.4248 87.3583 34.5456 87.2625 34.6498C87.1625 34.754 87.0416 34.8373 86.8916 34.8956C86.7458 34.954 86.575 34.9831 86.3875 34.9831L86.3708 34.979Z" fill="white"/>
<path d="M89.9874 32.9706L89.5291 33.0498C89.5082 32.9915 89.4791 32.9373 89.4374 32.8831C89.3957 32.829 89.3416 32.7873 89.2707 32.754C89.1999 32.7206 89.1124 32.704 89.0082 32.704C88.8666 32.704 88.7457 32.7373 88.6499 32.7998C88.5541 32.8623 88.5082 32.9456 88.5082 33.0456C88.5082 33.1331 88.5416 33.204 88.6041 33.254C88.6666 33.3081 88.7707 33.3498 88.9166 33.3831L89.3291 33.479C89.5666 33.5331 89.7457 33.6206 89.8624 33.7331C89.9791 33.8456 90.0374 33.9956 90.0374 34.179C90.0374 34.3331 89.9916 34.4706 89.9041 34.5915C89.8166 34.7123 89.6916 34.8081 89.5332 34.8748C89.3749 34.9456 89.1916 34.979 88.9791 34.979C88.6874 34.979 88.4541 34.9165 88.2707 34.7915C88.0874 34.6665 87.9749 34.4915 87.9332 34.2623L88.4207 34.1873C88.4499 34.3123 88.5124 34.4081 88.6082 34.4748C88.7041 34.5415 88.8249 34.5706 88.9791 34.5706C89.1457 34.5706 89.2749 34.5373 89.3749 34.4665C89.4749 34.3956 89.5249 34.3123 89.5249 34.2123C89.5249 34.1331 89.4957 34.0623 89.4332 34.0081C89.3749 33.954 89.2832 33.9123 89.1582 33.8831L88.7207 33.7873C88.4791 33.7331 88.2999 33.6456 88.1832 33.5248C88.0666 33.404 88.0124 33.254 88.0124 33.0665C88.0124 32.9123 88.0541 32.779 88.1416 32.6665C88.2291 32.554 88.3457 32.4623 88.4957 32.3956C88.6457 32.3331 88.8207 32.2998 89.0124 32.2998C89.2916 32.2998 89.5124 32.3623 89.6749 32.4831C89.8374 32.604 89.9416 32.7665 89.9957 32.9665L89.9874 32.9706Z" fill="white"/>
<path d="M91.3416 34.9875C91.1791 34.9875 91.0291 34.9584 90.8957 34.8959C90.7624 34.8334 90.6582 34.7459 90.5832 34.6292C90.5082 34.5125 90.4666 34.3709 90.4666 34.2C90.4666 34.0542 90.4957 33.9334 90.5499 33.8375C90.6041 33.7417 90.6832 33.6667 90.7791 33.6125C90.8749 33.5584 90.9832 33.5167 91.0999 33.4875C91.2166 33.4584 91.3374 33.4375 91.4624 33.425C91.6166 33.4084 91.7416 33.3917 91.8416 33.3792C91.9374 33.3667 92.0082 33.35 92.054 33.3209C92.0999 33.2959 92.1207 33.25 92.1207 33.1875V33.175C92.1207 33.0292 92.0791 32.9125 91.9957 32.8334C91.9124 32.7542 91.7916 32.7125 91.6291 32.7125C91.4666 32.7125 91.3249 32.75 91.2291 32.825C91.1332 32.9 91.0666 32.9834 91.0291 33.075L90.5541 32.9667C90.6082 32.8084 90.6916 32.6834 90.7999 32.5834C90.9082 32.4875 91.0332 32.4167 91.1749 32.3709C91.3166 32.325 91.4666 32.3042 91.6207 32.3042C91.7249 32.3042 91.8332 32.3167 91.9499 32.3417C92.0665 32.3667 92.1749 32.4084 92.2791 32.475C92.3791 32.5375 92.4624 32.6292 92.529 32.75C92.5957 32.8709 92.6291 33.0209 92.6291 33.2125V34.9334H92.1374V34.5792H92.1166C92.0832 34.6459 92.0332 34.7084 91.9707 34.7709C91.9041 34.8334 91.8207 34.8875 91.7207 34.9292C91.6165 34.9709 91.4957 34.9917 91.3541 34.9917L91.3416 34.9875ZM91.4499 34.5834C91.5874 34.5834 91.7082 34.5542 91.8082 34.5C91.9082 34.4459 91.9832 34.3709 92.0374 34.2834C92.0916 34.1959 92.1166 34.1 92.1166 33.9959V33.6625C92.1166 33.6625 92.0624 33.6959 92.0124 33.7125C91.9624 33.7292 91.9041 33.7417 91.8374 33.75C91.7707 33.7625 91.7082 33.7709 91.6457 33.7792C91.5832 33.7875 91.5332 33.7959 91.4916 33.8C91.3916 33.8125 91.3041 33.8334 91.2249 33.8625C91.1457 33.8917 91.0791 33.9334 91.0332 33.9875C90.9874 34.0417 90.9624 34.1125 90.9624 34.2042C90.9624 34.3292 91.0082 34.425 91.0999 34.4875C91.1916 34.55 91.3082 34.5834 91.454 34.5834H91.4499Z" fill="white"/>
<path d="M93.2916 34.929V32.3373H93.7791V32.7498H93.8041C93.85 32.6123 93.9333 32.4998 94.0541 32.4206C94.175 32.3415 94.3083 32.2998 94.4625 32.2998C94.4958 32.2998 94.5333 32.2998 94.575 32.2998C94.6166 32.2998 94.6541 32.304 94.675 32.3081V32.7915C94.675 32.7915 94.6208 32.779 94.5666 32.7706C94.5166 32.7623 94.4625 32.7581 94.4125 32.7581C94.2916 32.7581 94.1875 32.7831 94.0958 32.8331C94.0041 32.8831 93.9291 32.954 93.875 33.0415C93.8208 33.129 93.7958 33.229 93.7958 33.3415V34.9248H93.2916V34.929Z" fill="white"/>
<path d="M95.1166 34.929V32.3373H95.6041V32.7498H95.6291C95.6749 32.6123 95.7582 32.4998 95.8791 32.4206C95.9999 32.3415 96.1332 32.2998 96.2874 32.2998C96.3207 32.2998 96.3582 32.2998 96.3999 32.2998C96.4416 32.2998 96.4791 32.304 96.4999 32.3081V32.7915C96.4999 32.7915 96.4416 32.779 96.3916 32.7706C96.3416 32.7623 96.2874 32.7581 96.2374 32.7581C96.1166 32.7581 96.0124 32.7831 95.9207 32.8331C95.8291 32.8831 95.7541 32.954 95.6999 33.0415C95.6457 33.129 95.6207 33.229 95.6207 33.3415V34.9248H95.1166V34.929Z" fill="white"/>
<path d="M97.9416 34.9792C97.6999 34.9792 97.4874 34.925 97.3041 34.8125C97.1249 34.7 96.9833 34.5459 96.8833 34.3459C96.7833 34.1459 96.7333 33.9125 96.7333 33.6459C96.7333 33.3792 96.7833 33.1417 96.8833 32.9417C96.9833 32.7417 97.1249 32.5834 97.3041 32.4709C97.4833 32.3584 97.6958 32.3042 97.9416 32.3042C98.1874 32.3042 98.3958 32.3584 98.5791 32.4709C98.7624 32.5834 98.8999 32.7375 98.9999 32.9417C99.0999 33.1417 99.1499 33.3792 99.1499 33.6459C99.1499 33.9125 99.0999 34.1459 98.9999 34.3459C98.8999 34.5459 98.7583 34.7 98.5791 34.8125C98.3999 34.925 98.1874 34.9792 97.9416 34.9792ZM97.9416 34.5542C98.0999 34.5542 98.2291 34.5125 98.3333 34.4292C98.4374 34.3459 98.5124 34.2334 98.5624 34.0959C98.6124 33.9584 98.6374 33.8042 98.6374 33.6375C98.6374 33.4709 98.6124 33.3209 98.5624 33.1834C98.5124 33.0459 98.4374 32.9334 98.3333 32.85C98.2291 32.7667 98.0999 32.725 97.9416 32.725C97.7833 32.725 97.6499 32.7667 97.5499 32.85C97.4458 32.9334 97.3708 33.0459 97.3208 33.1834C97.2708 33.3209 97.2458 33.475 97.2458 33.6375C97.2458 33.8 97.2708 33.9584 97.3208 34.0959C97.3708 34.2334 97.4458 34.3459 97.5499 34.4292C97.6541 34.5125 97.7833 34.5542 97.9416 34.5542Z" fill="white"/>
<path d="M100.212 31.4751V34.9293H99.7083V31.4751H100.212Z" fill="white"/>
<path d="M101.396 31.4751V34.9293H100.892V31.4751H101.396Z" fill="white"/>
<path d="M103.167 34.9792C102.925 34.9792 102.712 34.925 102.529 34.8125C102.35 34.7 102.208 34.5459 102.108 34.3459C102.008 34.1459 101.958 33.9125 101.958 33.6459C101.958 33.3792 102.008 33.1417 102.108 32.9417C102.208 32.7417 102.35 32.5834 102.529 32.4709C102.708 32.3584 102.921 32.3042 103.167 32.3042C103.412 32.3042 103.621 32.3584 103.804 32.4709C103.983 32.5834 104.125 32.7375 104.225 32.9417C104.325 33.1417 104.375 33.3792 104.375 33.6459C104.375 33.9125 104.325 34.1459 104.225 34.3459C104.125 34.5459 103.983 34.7 103.804 34.8125C103.625 34.925 103.412 34.9792 103.167 34.9792ZM103.167 34.5542C103.325 34.5542 103.454 34.5125 103.558 34.4292C103.662 34.3459 103.737 34.2334 103.787 34.0959C103.837 33.9584 103.862 33.8042 103.862 33.6375C103.862 33.4709 103.837 33.3209 103.787 33.1834C103.737 33.0459 103.662 32.9334 103.558 32.85C103.454 32.7667 103.325 32.725 103.167 32.725C103.008 32.725 102.875 32.7667 102.771 32.85C102.667 32.9334 102.592 33.0459 102.542 33.1834C102.492 33.3209 102.467 33.475 102.467 33.6375C102.467 33.8 102.492 33.9584 102.542 34.0959C102.592 34.2334 102.667 34.3459 102.771 34.4292C102.875 34.5125 103.004 34.5542 103.167 34.5542Z" fill="white"/>
<path d="M106.908 34.9293L105.95 31.4751H106.5L107.175 34.1501H107.208L107.908 31.4751H108.45L109.15 34.1501H109.183L109.854 31.4751H110.404L109.446 34.9293H108.921L108.196 32.3418H108.171L107.446 34.9293H106.921H106.908Z" fill="white"/>
<path d="M111.7 34.979C111.446 34.979 111.225 34.9248 111.042 34.8123C110.858 34.704 110.717 34.5498 110.617 34.3498C110.517 34.1498 110.467 33.9165 110.467 33.6456C110.467 33.3748 110.517 33.1456 110.617 32.9456C110.717 32.7415 110.854 32.5873 111.033 32.4706C111.212 32.354 111.421 32.2998 111.662 32.2998C111.808 32.2998 111.95 32.3248 112.087 32.3706C112.225 32.4206 112.346 32.4956 112.458 32.5998C112.567 32.704 112.654 32.8373 112.717 33.004C112.779 33.1706 112.812 33.3706 112.812 33.604V33.7831H110.754V33.404H112.321C112.321 33.2706 112.296 33.154 112.242 33.0498C112.187 32.9456 112.112 32.8665 112.017 32.8081C111.921 32.7498 111.804 32.7206 111.675 32.7206C111.533 32.7206 111.408 32.754 111.304 32.8248C111.2 32.8956 111.117 32.9831 111.062 33.0956C111.004 33.2081 110.979 33.3248 110.979 33.454V33.7498C110.979 33.9248 111.008 34.0706 111.071 34.1915C111.133 34.3123 111.217 34.404 111.329 34.4706C111.437 34.5331 111.567 34.5665 111.717 34.5665C111.812 34.5665 111.9 34.554 111.979 34.5248C112.058 34.4956 112.125 34.454 112.183 34.3998C112.242 34.3456 112.283 34.279 112.317 34.1956L112.796 34.2831C112.758 34.4248 112.687 34.5456 112.592 34.6498C112.492 34.754 112.371 34.8373 112.221 34.8956C112.075 34.954 111.904 34.9831 111.717 34.9831L111.7 34.979Z" fill="white"/>
<path d="M113.412 34.9293V31.4751H113.917V32.7584H113.946C113.975 32.7043 114.017 32.6418 114.071 32.5709C114.125 32.5001 114.204 32.4376 114.3 32.3834C114.396 32.3293 114.529 32.3043 114.687 32.3043C114.896 32.3043 115.083 32.3584 115.246 32.4626C115.408 32.5668 115.537 32.7209 115.633 32.9209C115.729 33.1209 115.775 33.3584 115.775 33.6376C115.775 33.9168 115.729 34.1584 115.633 34.3584C115.542 34.5584 115.412 34.7126 115.25 34.8209C115.087 34.9293 114.9 34.9834 114.692 34.9834C114.533 34.9834 114.404 34.9584 114.308 34.9043C114.208 34.8501 114.129 34.7876 114.075 34.7168C114.017 34.6459 113.975 34.5834 113.946 34.5293H113.904V34.9334H113.412V34.9293ZM113.908 33.6334C113.908 33.8168 113.933 33.9751 113.987 34.1126C114.042 34.2501 114.117 34.3584 114.217 34.4334C114.317 34.5084 114.437 34.5501 114.583 34.5501C114.729 34.5501 114.858 34.5084 114.962 34.4293C115.062 34.3501 115.142 34.2376 115.192 34.1001C115.246 33.9626 115.271 33.8043 115.271 33.6334C115.271 33.4626 115.246 33.3084 115.196 33.1709C115.146 33.0334 115.067 32.9293 114.967 32.8501C114.867 32.7709 114.737 32.7334 114.587 32.7334C114.437 32.7334 114.317 32.7709 114.217 32.8459C114.117 32.9209 114.042 33.0251 113.987 33.1626C113.933 33.3001 113.908 33.4543 113.908 33.6334Z" fill="white"/>
<path d="M117.642 34.9293V31.4751H119.783V31.9251H118.162V32.9793H119.629V33.4251H118.162V34.9293H117.642Z" fill="white"/>
<path d="M120.354 34.929V32.3373H120.842V32.7498H120.867C120.912 32.6123 120.996 32.4998 121.117 32.4206C121.237 32.3415 121.371 32.2998 121.525 32.2998C121.558 32.2998 121.596 32.2998 121.637 32.2998C121.679 32.2998 121.717 32.304 121.737 32.3081V32.7915C121.737 32.7915 121.683 32.779 121.629 32.7706C121.579 32.7623 121.525 32.7581 121.475 32.7581C121.354 32.7581 121.25 32.7831 121.158 32.8331C121.067 32.8831 120.992 32.954 120.937 33.0415C120.883 33.129 120.858 33.229 120.858 33.3415V34.9248H120.354V34.929Z" fill="white"/>
<path d="M123.175 34.9792C122.933 34.9792 122.721 34.925 122.537 34.8125C122.358 34.7 122.217 34.5459 122.117 34.3459C122.017 34.1459 121.967 33.9125 121.967 33.6459C121.967 33.3792 122.017 33.1417 122.117 32.9417C122.217 32.7417 122.358 32.5834 122.537 32.4709C122.717 32.3584 122.929 32.3042 123.175 32.3042C123.421 32.3042 123.629 32.3584 123.812 32.4709C123.992 32.5834 124.133 32.7375 124.233 32.9417C124.333 33.1459 124.383 33.3792 124.383 33.6459C124.383 33.9125 124.333 34.1459 124.233 34.3459C124.133 34.5459 123.992 34.7 123.812 34.8125C123.633 34.925 123.421 34.9792 123.175 34.9792ZM123.175 34.5542C123.333 34.5542 123.462 34.5125 123.567 34.4292C123.671 34.3459 123.746 34.2334 123.796 34.0959C123.846 33.9584 123.871 33.8042 123.871 33.6375C123.871 33.4709 123.846 33.3209 123.796 33.1834C123.746 33.0459 123.671 32.9334 123.567 32.85C123.462 32.7667 123.333 32.725 123.175 32.725C123.017 32.725 122.883 32.7667 122.783 32.85C122.679 32.9334 122.604 33.0459 122.554 33.1834C122.504 33.3209 122.479 33.475 122.479 33.6375C122.479 33.8 122.504 33.9584 122.554 34.0959C122.604 34.2334 122.679 34.3459 122.783 34.4292C122.887 34.5125 123.017 34.5542 123.175 34.5542Z" fill="white"/>
<path d="M125.45 33.3917V34.9292H124.946V32.3375H125.429V32.7584H125.462C125.521 32.6209 125.617 32.5125 125.742 32.4292C125.871 32.3459 126.029 32.3042 126.225 32.3042C126.4 32.3042 126.554 32.3417 126.687 32.4167C126.821 32.4917 126.925 32.6 126.996 32.7459C127.067 32.8917 127.104 33.0709 127.104 33.2834V34.9292H126.6V33.3417C126.6 33.1542 126.55 33.0084 126.454 32.9C126.358 32.7917 126.221 32.7417 126.05 32.7417C125.933 32.7417 125.829 32.7667 125.737 32.8167C125.646 32.8667 125.575 32.9417 125.525 33.0375C125.471 33.1334 125.446 33.25 125.446 33.3875L125.45 33.3917Z" fill="white"/>
<path d="M128.992 32.3376V32.7418H127.575V32.3376H128.992ZM127.954 31.7168H128.458V34.1668C128.458 34.2626 128.475 34.3376 128.504 34.3876C128.533 34.4376 128.571 34.471 128.617 34.4876C128.662 34.5043 128.712 34.5126 128.771 34.5126C128.812 34.5126 128.846 34.5126 128.879 34.5043C128.912 34.496 128.933 34.496 128.95 34.4918L129.042 34.9085C129.012 34.921 128.971 34.9335 128.917 34.9418C128.862 34.9543 128.796 34.9585 128.712 34.9626C128.579 34.9626 128.454 34.9418 128.342 34.8918C128.225 34.8418 128.133 34.7668 128.062 34.6626C127.992 34.5585 127.954 34.4293 127.954 34.271V31.7168Z" fill="white"/>
<path d="M130.846 34.9293V31.4751H133.012V31.9251H131.367V32.9793H132.9V33.4251H131.367V34.4834H133.033V34.9334H130.846V34.9293Z" fill="white"/>
<path d="M134.175 33.3917V34.9292H133.671V32.3375H134.154V32.7584H134.187C134.246 32.6209 134.342 32.5125 134.467 32.4292C134.596 32.3459 134.754 32.3042 134.95 32.3042C135.125 32.3042 135.279 32.3417 135.412 32.4167C135.546 32.4917 135.65 32.6 135.721 32.7459C135.796 32.8917 135.829 33.0709 135.829 33.2834V34.9292H135.325V33.3417C135.325 33.1542 135.275 33.0084 135.179 32.9C135.083 32.7917 134.946 32.7417 134.775 32.7417C134.658 32.7417 134.554 32.7667 134.462 32.8167C134.371 32.8667 134.3 32.9417 134.25 33.0375C134.196 33.1334 134.171 33.25 134.171 33.3875L134.175 33.3917Z" fill="white"/>
<path d="M137.475 34.979C137.267 34.979 137.079 34.9249 136.917 34.8165C136.754 34.7082 136.625 34.554 136.533 34.354C136.442 34.154 136.396 33.9165 136.396 33.6332C136.396 33.3499 136.442 33.1124 136.537 32.9165C136.633 32.7165 136.758 32.5665 136.925 32.4582C137.087 32.354 137.275 32.2999 137.483 32.2999C137.646 32.2999 137.775 32.3249 137.871 32.379C137.971 32.4332 138.046 32.4957 138.1 32.5665C138.154 32.6374 138.196 32.6999 138.229 32.754H138.258V31.4707H138.762V34.9249H138.271V34.5207H138.229C138.2 34.5749 138.154 34.6374 138.1 34.7082C138.042 34.779 137.967 34.8415 137.867 34.8957C137.767 34.9499 137.642 34.9749 137.483 34.9749L137.475 34.979ZM137.587 34.5499C137.733 34.5499 137.854 34.5124 137.954 34.4332C138.054 34.354 138.129 34.2499 138.183 34.1124C138.237 33.9749 138.262 33.8165 138.262 33.6332C138.262 33.4499 138.237 33.2957 138.183 33.1624C138.129 33.029 138.054 32.9207 137.954 32.8457C137.854 32.7707 137.729 32.7332 137.583 32.7332C137.437 32.7332 137.304 32.7707 137.204 32.8499C137.104 32.929 137.025 33.0374 136.975 33.1707C136.925 33.3082 136.9 33.4624 136.9 33.6332C136.9 33.804 136.925 33.9624 136.979 34.0999C137.033 34.2374 137.108 34.3457 137.208 34.429C137.308 34.5124 137.437 34.5499 137.583 34.5499H137.587Z" fill="white"/>
<path d="M52.3833 23.8291H54.3583V30.9541C54.3583 31.7374 54.175 32.4208 53.8083 33.0166C53.4416 33.6083 52.925 34.0708 52.2625 34.4041C51.6 34.7374 50.8208 34.9041 49.9333 34.9041C49.0458 34.9041 48.2625 34.7374 47.6 34.4041C46.9375 34.0708 46.4208 33.6083 46.0542 33.0166C45.6875 32.4249 45.5042 31.7374 45.5042 30.9541V23.8291H47.4791V30.7916C47.4791 31.2458 47.5791 31.6499 47.7791 32.0083C47.9791 32.3624 48.2625 32.6416 48.6291 32.8416C48.9958 33.0416 49.4291 33.1416 49.9291 33.1416C50.4291 33.1416 50.8625 33.0416 51.2291 32.8416C51.5958 32.6416 51.8791 32.3624 52.0791 32.0083C52.2791 31.6541 52.3791 31.2499 52.3791 30.7916V23.8291H52.3833Z" fill="white"/>
<path d="M58.4875 23.8291V34.7374H56.5125V23.8291H58.4875Z" fill="white"/>
<path d="M41.0708 23.3169L37.5541 36.3794H35.8666L39.3833 23.3169H41.0708Z" fill="white"/>
<path d="M20.4874 23.8291H22.4624V30.9541C22.4624 31.7374 22.2791 32.4208 21.9124 33.0166C21.5458 33.6083 21.0291 34.0708 20.3666 34.4041C19.7041 34.7374 18.9249 34.9041 18.0374 34.9041C17.1499 34.9041 16.3666 34.7374 15.7041 34.4041C15.0416 34.0708 14.5249 33.6083 14.1583 33.0166C13.7916 32.4249 13.6083 31.7374 13.6083 30.9541V23.8291H15.5833V30.7916C15.5833 31.2458 15.6833 31.6499 15.8833 32.0083C16.0833 32.3624 16.3666 32.6416 16.7333 32.8416C17.0999 33.0416 17.5333 33.1416 18.0333 33.1416C18.5333 33.1416 18.9666 33.0416 19.3333 32.8416C19.6999 32.6416 19.9833 32.3624 20.1833 32.0083C20.3833 31.6541 20.4833 31.2499 20.4833 30.7916V23.8291H20.4874Z" fill="white"/>
<path d="M26.2666 23.8291L28.6708 27.8249H28.7541L31.1666 23.8291H33.4208L30.0583 29.2833L33.4708 34.7374H31.1791L28.75 30.7708H28.6666L26.2375 34.7374H23.9583L27.4041 29.2833L24 23.8291H26.2625H26.2666Z" fill="white"/>
<path d="M68.3542 37.8042C68.0917 37.8042 67.85 37.7834 67.625 37.7417C67.4042 37.7 67.225 37.6542 67.0958 37.6L67.5416 36.0959C67.8208 36.1792 68.0708 36.2167 68.2916 36.2125C68.5125 36.2125 68.7083 36.1417 68.875 36.0084C69.0417 35.875 69.1875 35.6542 69.3042 35.3459L69.4708 34.9042L66.5042 26.5542H68.55L70.4375 32.7334H70.5208L72.4125 26.5542H74.4625L71.1875 35.725C71.0333 36.1584 70.8333 36.5292 70.5791 36.8417C70.325 37.1542 70.0208 37.3917 69.6541 37.5542C69.2916 37.7209 68.8541 37.8042 68.35 37.8042H68.3542Z" fill="white"/>
<path d="M13.9083 49.7374V38.8291H20.8958V40.4874H15.8833V43.4499H20.4166V45.1083H15.8833V49.7416H13.9083V49.7374Z" fill="white"/>
<path d="M22.4875 49.7373V41.5539H24.3583V42.9164H24.4458C24.5958 42.4456 24.85 42.0789 25.2167 41.8206C25.5792 41.5623 25.9958 41.4331 26.4667 41.4331C26.575 41.4331 26.6917 41.4331 26.825 41.4456C26.9583 41.4539 27.0708 41.4664 27.1583 41.4873V43.2623C27.075 43.2331 26.95 43.2081 26.7708 43.1831C26.5958 43.1581 26.425 43.1498 26.2625 43.1498C25.9125 43.1498 25.5958 43.2248 25.3167 43.3748C25.0375 43.5248 24.8167 43.7331 24.6583 43.9998C24.5 44.2664 24.4167 44.5748 24.4167 44.9206V49.7289H22.4875V49.7373Z" fill="white"/>
<path d="M31.6666 49.8958C30.8666 49.8958 30.175 49.7208 29.5875 49.3666C29 49.0125 28.5458 48.525 28.225 47.8916C27.9041 47.2583 27.7416 46.5208 27.7416 45.675C27.7416 44.8291 27.9 44.0875 28.225 43.4541C28.5458 42.8166 29 42.325 29.5875 41.975C30.175 41.625 30.8666 41.4458 31.6666 41.4458C32.4666 41.4458 33.1583 41.6208 33.7458 41.975C34.3333 42.3291 34.7875 42.8208 35.1083 43.4541C35.4291 44.0916 35.5916 44.8291 35.5916 45.675C35.5916 46.5208 35.4333 47.2583 35.1083 47.8916C34.7875 48.525 34.3333 49.0166 33.7458 49.3666C33.1583 49.7166 32.4666 49.8958 31.6666 49.8958ZM31.6791 48.35C32.1125 48.35 32.475 48.2291 32.7666 47.9916C33.0583 47.75 33.275 47.4291 33.4208 47.025C33.5625 46.6208 33.6375 46.1708 33.6375 45.6708C33.6375 45.1708 33.5666 44.7166 33.4208 44.3083C33.275 43.9 33.0583 43.5791 32.7666 43.3375C32.475 43.0958 32.1125 42.975 31.6791 42.975C31.2458 42.975 30.8666 43.0958 30.575 43.3375C30.2833 43.5791 30.0625 43.9041 29.9208 44.3083C29.7791 44.7166 29.7041 45.1666 29.7041 45.6708C29.7041 46.175 29.775 46.6208 29.9208 47.025C30.0666 47.4291 30.2833 47.75 30.575 47.9916C30.8666 48.2333 31.2375 48.35 31.6791 48.35Z" fill="white"/>
<path d="M39.1458 44.9419V49.7377H37.2167V41.5544H39.0583V42.946H39.1542C39.3417 42.4877 39.6417 42.1252 40.0583 41.8544C40.4708 41.5835 40.9833 41.4502 41.5958 41.4502C42.1625 41.4502 42.6542 41.571 43.075 41.8127C43.4958 42.0544 43.8208 42.4044 44.0542 42.8627C44.2875 43.321 44.4 43.8752 44.3958 44.5294V49.7377H42.4667V44.8252C42.4667 44.2794 42.325 43.8502 42.0417 43.5419C41.7583 43.2335 41.3708 43.0794 40.8708 43.0794C40.5333 43.0794 40.2333 43.1544 39.975 43.3002C39.7125 43.446 39.5083 43.6585 39.3625 43.9377C39.2167 44.2169 39.1417 44.5502 39.1417 44.946L39.1458 44.9419Z" fill="white"/>
<path d="M50.4457 41.5541V43.0457H45.7416V41.5541H50.4457ZM46.9041 39.5916H48.8332V47.2707C48.8332 47.5291 48.8749 47.7291 48.9541 47.8624C49.0332 47.9999 49.1416 48.0916 49.2707 48.1416C49.3999 48.1916 49.5499 48.2166 49.7082 48.2166C49.8291 48.2166 49.9416 48.2082 50.0416 48.1916C50.1416 48.1749 50.2207 48.1582 50.2749 48.1416L50.5999 49.6499C50.4957 49.6874 50.3499 49.7249 50.1624 49.7666C49.9707 49.8082 49.7416 49.8332 49.4666 49.8416C48.9832 49.8541 48.5499 49.7832 48.1624 49.6207C47.7749 49.4582 47.4707 49.2082 47.2416 48.8666C47.0124 48.5249 46.9041 48.0999 46.9082 47.5874V39.5874L46.9041 39.5916Z" fill="white"/>
<path d="M56.7542 44.3999V45.9874H51.8417V44.3999H56.7542Z" fill="white"/>
<path d="M58.8666 49.7374V38.8291H65.9624V40.4874H60.8416V43.4499H65.5916V45.1083H60.8416V48.0874H66.0041V49.7458H58.8666V49.7374Z" fill="white"/>
<path d="M69.8249 44.9419V49.7377H67.8958V41.5544H69.7374V42.946H69.8332C70.0207 42.4877 70.3208 42.1252 70.7374 41.8544C71.1499 41.5835 71.6624 41.4502 72.2749 41.4502C72.8374 41.4502 73.3333 41.571 73.7541 41.8127C74.1749 42.0544 74.4999 42.4044 74.7333 42.8627C74.9666 43.321 75.0791 43.8752 75.0749 44.5294V49.7377H73.1458V44.8252C73.1458 44.2794 73.0041 43.8502 72.7208 43.5419C72.4374 43.2335 72.0499 43.0794 71.5499 43.0794C71.2124 43.0794 70.9124 43.1544 70.6541 43.3002C70.3916 43.446 70.1874 43.6585 70.0416 43.9377C69.8957 44.2169 69.8207 44.5502 69.8207 44.946L69.8249 44.9419Z" fill="white"/>
<path d="M80.0791 49.8833C79.4374 49.8833 78.8624 49.7166 78.3541 49.3874C77.8458 49.0583 77.4458 48.5791 77.1499 47.9499C76.8541 47.3208 76.7083 46.5583 76.7083 45.6583C76.7083 44.7583 76.8583 43.9791 77.1583 43.3541C77.4583 42.7291 77.8624 42.2541 78.3749 41.9333C78.8874 41.6124 79.4541 41.4499 80.0833 41.4499C80.5624 41.4499 80.9583 41.5291 81.2666 41.6916C81.5749 41.8541 81.8208 42.0458 81.9999 42.2708C82.1791 42.4958 82.3208 42.7083 82.4208 42.9083H82.4999V38.8291H84.4333V49.7374H82.5374V48.4499H82.4208C82.3208 48.6499 82.1791 48.8583 81.9874 49.0791C81.7999 49.2999 81.5499 49.4916 81.2416 49.6458C80.9333 49.8041 80.5458 49.8791 80.0749 49.8791L80.0791 49.8833ZM80.6166 48.2999C81.0249 48.2999 81.3749 48.1874 81.6624 47.9666C81.9499 47.7458 82.1666 47.4333 82.3166 47.0374C82.4666 46.6374 82.5416 46.1749 82.5416 45.6458C82.5416 45.1166 82.4666 44.6583 82.3208 44.2666C82.1749 43.8749 81.9583 43.5708 81.6708 43.3541C81.3833 43.1374 81.0333 43.0291 80.6208 43.0291C80.2083 43.0291 79.8333 43.1416 79.5458 43.3624C79.2583 43.5874 79.0416 43.8958 78.8958 44.2874C78.7499 44.6833 78.6791 45.1333 78.6791 45.6416C78.6791 46.1499 78.7541 46.6083 78.8999 47.0083C79.0458 47.4083 79.2666 47.7208 79.5541 47.9499C79.8416 48.1791 80.1999 48.2916 80.6208 48.2916L80.6166 48.2999Z" fill="white"/>
<path d="M94.0042 49.7374H90.3083V38.8291H94.0792C95.1625 38.8291 96.0917 39.0458 96.875 39.4833C97.6542 39.9166 98.2542 40.5416 98.6709 41.3541C99.0875 42.1666 99.3 43.1416 99.3 44.2749C99.3 45.4083 99.0917 46.3874 98.6709 47.2041C98.25 48.0208 97.6459 48.6458 96.8542 49.0833C96.0625 49.5208 95.1167 49.7374 94.0084 49.7374H94.0042ZM92.2834 48.0291H93.9083C94.6667 48.0291 95.3 47.8916 95.8084 47.6124C96.3167 47.3333 96.6959 46.9166 96.9542 46.3624C97.2084 45.8083 97.3375 45.1124 97.3375 44.2791C97.3375 43.4458 97.2084 42.7499 96.9542 42.1999C96.7 41.6458 96.3209 41.2333 95.8209 40.9583C95.3209 40.6833 94.7042 40.5458 93.9625 40.5458H92.2792V48.0333L92.2834 48.0291Z" fill="white"/>
<path d="M104.708 49.896C103.887 49.896 103.179 49.7252 102.587 49.3835C101.992 49.0419 101.537 48.5544 101.217 47.9252C100.896 47.296 100.737 46.5502 100.737 45.696C100.737 44.8419 100.9 44.1169 101.221 43.4752C101.542 42.8377 101.992 42.3419 102.571 41.9835C103.15 41.6252 103.829 41.4502 104.612 41.4502C105.117 41.4502 105.592 41.5294 106.042 41.6919C106.492 41.8544 106.887 42.1044 107.233 42.4419C107.579 42.7794 107.854 43.2085 108.05 43.7294C108.25 44.2502 108.35 44.8669 108.35 45.5877V46.1794H101.642V44.8794H106.5C106.5 44.5085 106.417 44.1794 106.258 43.8919C106.1 43.6044 105.883 43.3752 105.604 43.2085C105.325 43.0419 105 42.9585 104.633 42.9585C104.237 42.9585 103.892 43.0544 103.596 43.2419C103.296 43.4335 103.067 43.6794 102.9 43.9877C102.733 44.296 102.65 44.6294 102.646 44.996V46.1294C102.646 46.6044 102.733 47.0127 102.908 47.3502C103.083 47.6877 103.325 47.9502 103.637 48.1294C103.95 48.3085 104.317 48.4002 104.733 48.4002C105.012 48.4002 105.267 48.3585 105.496 48.2794C105.725 48.2002 105.921 48.0794 106.087 47.9252C106.254 47.771 106.379 47.5752 106.467 47.346L108.267 47.5502C108.154 48.0252 107.937 48.4419 107.621 48.7919C107.304 49.146 106.896 49.4169 106.404 49.6127C105.908 49.8044 105.346 49.9044 104.708 49.9044V49.896Z" fill="white"/>
<path d="M117.046 41.5542L114.133 49.7375H112.004L109.092 41.5542H111.146L113.025 47.6334H113.108L114.996 41.5542H117.046Z" fill="white"/>
<path d="M121.717 49.896C120.896 49.896 120.188 49.7252 119.596 49.3835C119 49.0419 118.546 48.5544 118.225 47.9252C117.904 47.296 117.746 46.5502 117.746 45.696C117.746 44.8419 117.908 44.1169 118.229 43.4752C118.55 42.8377 119 42.3419 119.579 41.9835C120.158 41.6252 120.838 41.4502 121.621 41.4502C122.125 41.4502 122.6 41.5294 123.05 41.6919C123.5 41.8544 123.896 42.1044 124.242 42.4419C124.588 42.7794 124.863 43.2085 125.058 43.7294C125.258 44.2502 125.358 44.8669 125.358 45.5877V46.1794H118.65V44.8794H123.508C123.508 44.5085 123.425 44.1794 123.267 43.8919C123.108 43.6044 122.892 43.3752 122.613 43.2085C122.333 43.0419 122.008 42.9585 121.642 42.9585C121.246 42.9585 120.9 43.0544 120.604 43.2419C120.304 43.4335 120.075 43.6794 119.908 43.9877C119.742 44.296 119.658 44.6294 119.654 44.996V46.1294C119.654 46.6044 119.742 47.0127 119.917 47.3502C120.092 47.6877 120.333 47.9502 120.646 48.1294C120.958 48.3085 121.325 48.4002 121.742 48.4002C122.021 48.4002 122.275 48.3585 122.504 48.2794C122.733 48.2002 122.929 48.0794 123.096 47.9252C123.263 47.771 123.388 47.5752 123.475 47.346L125.275 47.5502C125.163 48.0252 124.946 48.4419 124.629 48.7919C124.313 49.146 123.904 49.4169 123.413 49.6127C122.917 49.8044 122.354 49.9044 121.717 49.9044V49.896Z" fill="white"/>
<path d="M128.912 38.8291V49.7374H126.983V38.8291H128.912Z" fill="white"/>
<path d="M134.467 49.8958C133.667 49.8958 132.975 49.7208 132.387 49.3666C131.8 49.0125 131.346 48.525 131.025 47.8916C130.704 47.2583 130.542 46.5208 130.542 45.675C130.542 44.8291 130.704 44.0875 131.025 43.4541C131.346 42.8166 131.8 42.325 132.387 41.975C132.975 41.625 133.667 41.4458 134.467 41.4458C135.267 41.4458 135.958 41.6208 136.546 41.975C137.133 42.3291 137.587 42.8208 137.908 43.4541C138.229 44.0916 138.392 44.8291 138.392 45.675C138.392 46.5208 138.229 47.2583 137.908 47.8916C137.587 48.525 137.133 49.0166 136.546 49.3666C135.958 49.7166 135.267 49.8958 134.467 49.8958ZM134.479 48.35C134.912 48.35 135.275 48.2291 135.567 47.9916C135.858 47.75 136.075 47.4291 136.221 47.025C136.367 46.6208 136.437 46.1708 136.437 45.6708C136.437 45.1708 136.367 44.7166 136.221 44.3083C136.079 43.9 135.858 43.5791 135.567 43.3375C135.275 43.0958 134.912 42.975 134.479 42.975C134.046 42.975 133.667 43.0958 133.375 43.3375C133.083 43.5791 132.862 43.9041 132.721 44.3083C132.579 44.7166 132.504 45.1666 132.504 45.6708C132.504 46.175 132.575 46.6208 132.721 47.025C132.867 47.4291 133.083 47.75 133.375 47.9916C133.667 48.2333 134.037 48.35 134.479 48.35Z" fill="white"/>
<path d="M140.017 52.8044V41.5544H141.912V42.9085H142.025C142.125 42.7085 142.267 42.496 142.446 42.271C142.625 42.046 142.871 41.8502 143.179 41.6919C143.487 41.5335 143.883 41.4502 144.362 41.4502C144.996 41.4502 145.567 41.6085 146.075 41.9335C146.583 42.2544 146.987 42.7294 147.292 43.3544C147.592 43.9794 147.742 44.7502 147.742 45.6585C147.742 46.5669 147.596 47.321 147.3 47.9502C147.004 48.5794 146.604 49.0585 146.096 49.3877C145.587 49.7169 145.012 49.8835 144.371 49.8835C143.904 49.8835 143.512 49.8044 143.204 49.6502C142.896 49.4919 142.646 49.3044 142.462 49.0835C142.275 48.8627 142.133 48.6502 142.029 48.4544H141.95V52.8127H140.021L140.017 52.8044ZM141.908 45.646C141.908 46.1752 141.983 46.6377 142.133 47.0377C142.283 47.4377 142.504 47.746 142.787 47.9669C143.075 48.1877 143.421 48.3002 143.829 48.3002C144.237 48.3002 144.612 48.1877 144.9 47.9585C145.187 47.7294 145.404 47.4169 145.554 47.0169C145.704 46.6169 145.775 46.1627 145.775 45.6502C145.775 45.1377 145.704 44.6919 145.558 44.296C145.412 43.9002 145.196 43.5919 144.908 43.371C144.621 43.1502 144.262 43.0377 143.833 43.0377C143.404 43.0377 143.071 43.146 142.783 43.3627C142.496 43.5794 142.279 43.8835 142.129 44.2752C141.983 44.6669 141.908 45.1252 141.908 45.6544V45.646Z" fill="white"/>
<path d="M153.008 49.896C152.187 49.896 151.479 49.7252 150.887 49.3835C150.292 49.0419 149.837 48.5544 149.517 47.9252C149.196 47.296 149.037 46.5502 149.037 45.696C149.037 44.8419 149.2 44.1169 149.521 43.4752C149.842 42.8377 150.292 42.3419 150.871 41.9835C151.45 41.6252 152.129 41.4502 152.912 41.4502C153.417 41.4502 153.892 41.5294 154.342 41.6919C154.792 41.8544 155.187 42.1044 155.533 42.4419C155.879 42.7794 156.154 43.2085 156.35 43.7294C156.55 44.2502 156.65 44.8669 156.65 45.5877V46.1794H149.942V44.8794H154.8C154.8 44.5085 154.717 44.1794 154.558 43.8919C154.4 43.6044 154.183 43.3752 153.904 43.2085C153.625 43.0419 153.3 42.9585 152.933 42.9585C152.537 42.9585 152.192 43.0544 151.896 43.2419C151.596 43.4335 151.367 43.6794 151.2 43.9877C151.033 44.296 150.95 44.6294 150.946 44.996V46.1294C150.946 46.6044 151.033 47.0127 151.208 47.3502C151.383 47.6877 151.625 47.9502 151.937 48.1294C152.25 48.3085 152.617 48.4002 153.033 48.4002C153.312 48.4002 153.567 48.3585 153.796 48.2794C154.025 48.2002 154.221 48.0794 154.387 47.9252C154.554 47.771 154.679 47.5752 154.767 47.346L156.567 47.5502C156.454 48.0252 156.237 48.4419 155.921 48.7919C155.604 49.146 155.196 49.4169 154.704 49.6127C154.208 49.8044 153.646 49.9044 153.008 49.9044V49.896Z" fill="white"/>
<path d="M158.275 49.7373V41.5539H160.146V42.9164H160.229C160.379 42.4456 160.633 42.0789 161 41.8206C161.362 41.5623 161.779 41.4331 162.25 41.4331C162.358 41.4331 162.475 41.4331 162.608 41.4456C162.742 41.4539 162.854 41.4664 162.942 41.4873V43.2623C162.858 43.2331 162.729 43.2081 162.554 43.1831C162.379 43.1581 162.208 43.1498 162.046 43.1498C161.696 43.1498 161.379 43.2248 161.1 43.3748C160.821 43.5248 160.6 43.7331 160.442 43.9998C160.283 44.2664 160.2 44.5748 160.2 44.9206V49.7289H158.271L158.275 49.7373Z" fill="white"/>
</svg>
