<svg width="36" height="36" viewBox="0 0 36 36" fill="none" xmlns="http://www.w3.org/2000/svg">
<path d="M18 25.501C16.335 25.501 15 24.151 15 22.501C15 20.836 16.335 19.501 18 19.501C18.7956 19.501 19.5587 19.817 20.1213 20.3797C20.6839 20.9423 21 21.7053 21 22.501C21 23.2966 20.6839 24.0597 20.1213 24.6223C19.5587 25.1849 18.7956 25.501 18 25.501ZM27 30.001V15.001H9V30.001H27ZM27 12.001C27.7956 12.001 28.5587 12.317 29.1213 12.8797C29.6839 13.4423 30 14.2053 30 15.001V30.001C30 30.7966 29.6839 31.5597 29.1213 32.1223C28.5587 32.6849 27.7956 33.001 27 33.001H9C7.335 33.001 6 31.651 6 30.001V15.001C6 13.336 7.335 12.001 9 12.001H10.5V9.00098C10.5 7.01185 11.2902 5.1042 12.6967 3.69768C14.1032 2.29115 16.0109 1.50098 18 1.50098C18.9849 1.50098 19.9602 1.69497 20.8701 2.07188C21.7801 2.44879 22.6069 3.00124 23.3033 3.69768C23.9997 4.39411 24.5522 5.22091 24.9291 6.13085C25.306 7.04079 25.5 8.01606 25.5 9.00098V12.001H27ZM18 4.50098C16.8065 4.50098 15.6619 4.97508 14.818 5.819C13.9741 6.66291 13.5 7.8075 13.5 9.00098V12.001H22.5V9.00098C22.5 7.8075 22.0259 6.66291 21.182 5.819C20.3381 4.97508 19.1935 4.50098 18 4.50098Z" fill="#F7BE80"/>
</svg>
