<svg width="250" height="83" viewBox="0 0 250 83" fill="none" xmlns="http://www.w3.org/2000/svg">
<g clip-path="url(#clip0_13_1374)">
<path d="M70.5049 67.8963L93.5098 11.7644L116.515 67.8963H111.417L93.5098 23.5804L75.6107 67.8963H70.5049Z" fill="white"/>
<path d="M0.586304 67.8963V13.5559H27.5V18.1894H5.57816V35.1927H27.5V39.8181H5.57816V63.2627H27.5V67.8963H0.586304Z" fill="white"/>
<path d="M35.4642 58.7107L39.7313 56.4712C40.456 59.1504 41.8323 61.2432 43.7866 62.6928C45.741 64.1341 48.0537 64.867 50.8062 64.867C54.2101 64.867 56.8893 63.8491 58.8355 61.8296C60.7899 59.8019 61.7345 57.0494 61.7345 53.4338C61.7345 50.8279 61.0831 48.6537 59.7801 46.9191C58.4772 45.1846 55.7248 43.1569 51.4577 40.9175C45.9609 38.0266 42.3453 35.4208 40.5375 33.2465C38.7296 31.0804 37.785 28.4012 37.785 25.2905C37.785 21.4549 39.0879 18.3442 41.6938 15.8849C44.2997 13.4989 47.6954 12.2693 51.8974 12.2693C54.5765 12.2693 56.9625 12.8475 58.9902 14.0038C61.0179 15.0869 62.6059 16.8214 63.9088 19.1423L60.0733 21.455C59.2752 19.867 58.1922 18.7106 56.7427 17.9126C55.2932 17.0413 53.5586 16.683 51.6042 16.683C48.9251 16.683 46.759 17.4729 45.1629 18.9957C43.5749 20.5836 42.842 22.6846 42.842 25.3638C42.842 29.1993 45.9528 32.7416 52.2476 35.9989C53.4039 36.6504 54.2752 37.082 54.8534 37.3752C59.487 39.981 62.5244 42.367 64.1124 44.6146C65.6352 46.9273 66.4332 49.8181 66.4332 53.4419C66.4332 58.2872 65.057 62.196 62.1661 65.0217C59.3404 67.9126 55.4316 69.3621 50.5863 69.3621C46.9707 69.3621 43.9332 68.4256 41.4006 66.683C38.8599 64.8589 36.9055 62.253 35.4642 58.7107Z" fill="white"/>
<path d="M126.922 67.8963V18.1894H111.946V13.5559H146.816V18.1894H131.84V67.8963H126.922Z" fill="white"/>
<path d="M163.738 0.91748V82.5136" stroke="white" stroke-width="0.6353"/>
<path d="M179.577 13.8328H183.599V14.6389H180.44V16.9435H183.51V17.7497H180.44V20.7953H183.599V21.6015H179.577V13.8328Z" fill="white"/>
<path d="M189.112 15.3474C188.803 14.81 188.428 14.5005 187.777 14.5005C187.085 14.5005 186.49 14.9973 186.49 15.7057C186.49 16.3735 187.182 16.6829 187.704 16.9191L188.217 17.1471C189.226 17.5868 190.081 18.0917 190.081 19.3295C190.081 20.6895 188.99 21.7318 187.647 21.7318C186.401 21.7318 185.472 20.9256 185.228 19.7204L186.075 19.4843C186.189 20.2742 186.791 20.9256 187.63 20.9256C188.461 20.9256 189.226 20.2904 189.226 19.4109C189.226 18.507 188.518 18.1976 187.801 17.8637L187.329 17.6601C186.425 17.253 185.643 16.7888 185.643 15.6732C185.643 14.4679 186.661 13.6943 187.818 13.6943C188.681 13.6943 189.414 14.1341 189.821 14.8996L189.112 15.3474Z" fill="white"/>
<path d="M197.785 15.5348C197.166 14.8996 196.311 14.5087 195.415 14.5087C193.681 14.5087 192.288 16.0153 192.288 17.7172C192.288 19.4273 193.697 20.9338 195.44 20.9338C196.311 20.9338 197.174 20.5185 197.785 19.9078V20.9745C197.117 21.455 196.295 21.74 195.464 21.74C193.274 21.74 191.417 19.9566 191.417 17.7579C191.417 15.5348 193.241 13.7107 195.464 13.7107C196.327 13.7107 197.093 13.955 197.785 14.4762V15.5348Z" fill="white"/>
<path d="M200.603 18.4583C200.603 19.0364 200.578 19.696 200.945 20.1846C201.287 20.657 201.946 20.9257 202.508 20.9257C203.062 20.9257 203.673 20.6651 204.031 20.2335C204.446 19.7449 204.414 19.0609 204.414 18.4501V13.8247H205.277V18.6863C205.277 19.5332 205.22 20.2009 204.601 20.8361C204.063 21.4143 203.29 21.7237 202.508 21.7237C201.783 21.7237 201.026 21.4469 200.505 20.9338C199.821 20.2824 199.739 19.5739 199.739 18.6863V13.8247H200.603V18.4583Z" fill="white"/>
<path d="M207.337 13.8328H211.36V14.6389H208.2V16.9435H211.27V17.7497H208.2V20.7953H211.36V21.6015H207.337V13.8328Z" fill="white"/>
<path d="M214.218 20.7952H216.36V21.6014H213.355V13.8408H214.218V20.7952Z" fill="white"/>
<path d="M218.892 19.3946L217.956 21.6015H217.003L220.586 13.4663L224.08 21.6015H223.127L222.215 19.3946H218.892ZM220.57 15.4777L219.243 18.5885H221.865L220.57 15.4777Z" fill="white"/>
<path d="M183.094 30.8035C182.785 30.266 182.41 29.9566 181.759 29.9566C181.067 29.9566 180.472 30.4533 180.472 31.1618C180.472 31.8295 181.164 32.139 181.686 32.3751L182.207 32.6032C183.217 33.0429 184.063 33.5478 184.063 34.7856C184.063 36.1455 182.972 37.1878 181.629 37.1878C180.383 37.1878 179.454 36.3817 179.21 35.1764L180.057 34.9403C180.171 35.7302 180.782 36.3817 181.612 36.3817C182.443 36.3817 183.208 35.7465 183.208 34.867C183.208 33.9631 182.5 33.6536 181.783 33.3198L181.311 33.1162C180.407 32.709 179.625 32.2367 179.625 31.1292C179.625 29.924 180.643 29.1504 181.8 29.1504C182.663 29.1504 183.396 29.5901 183.803 30.3556L183.094 30.8035Z" fill="white"/>
<path d="M186.686 33.906C186.686 34.4842 186.661 35.1438 187.028 35.6324C187.37 36.1047 188.021 36.3734 188.591 36.3734C189.145 36.3734 189.756 36.1128 190.114 35.6813C190.521 35.1927 190.497 34.5086 190.497 33.8979V29.2725H191.368V34.134C191.368 34.9809 191.311 35.6487 190.692 36.2838C190.155 36.862 189.381 37.1715 188.599 37.1715C187.866 37.1715 187.117 36.8946 186.596 36.3816C185.912 35.7301 185.831 35.0216 185.831 34.134V29.2725H186.694V33.906H186.686Z" fill="white"/>
<path d="M194.283 37.0494H193.42V29.2888H194.699C195.366 29.2888 196.059 29.3051 196.621 29.7041C197.199 30.1032 197.492 30.7872 197.492 31.4712C197.492 32.0983 197.239 32.7335 196.751 33.1406C196.23 33.5722 195.554 33.6537 194.91 33.6537H194.283V37.0494ZM194.283 32.8474H194.862C195.822 32.8474 196.637 32.5625 196.637 31.4468C196.637 30.1846 195.619 30.0869 194.609 30.0869H194.283V32.8474Z" fill="white"/>
<path d="M199.112 29.2888H203.143V30.095H199.984V32.3996H203.054V33.2058H199.984V36.2514H203.143V37.0576H199.112V29.2888Z" fill="white"/>
<path d="M205.993 37.0494H205.13V29.2888H206.254C207.728 29.2888 209.096 29.6797 209.096 31.4305C209.096 32.6276 208.339 33.4664 207.15 33.5722L209.625 37.0494H208.567L206.221 33.6373H206.002V37.0494H205.993ZM205.993 32.88H206.262C207.239 32.88 208.233 32.6927 208.233 31.4875C208.233 30.209 207.296 30.0869 206.254 30.0869H205.993V32.88Z" fill="white"/>
<path d="M212.117 37.0494H211.254V29.2888H212.117V37.0494Z" fill="white"/>
<path d="M221.906 33.1732C221.906 35.4045 220.073 37.1797 217.858 37.1797C215.643 37.1797 213.811 35.4126 213.811 33.1732C213.811 30.9501 215.643 29.1504 217.858 29.1504C220.073 29.1504 221.906 30.9501 221.906 33.1732ZM214.682 33.165C214.682 34.9159 216.107 36.3735 217.866 36.3735C219.625 36.3735 221.042 34.9077 221.042 33.165C221.042 31.4061 219.642 29.9484 217.866 29.9484C216.091 29.9484 214.682 31.4061 214.682 33.165Z" fill="white"/>
<path d="M224.463 37.0494H223.599V29.2888H224.723C226.197 29.2888 227.565 29.6797 227.565 31.4305C227.565 32.6276 226.808 33.4664 225.619 33.5722L228.094 37.0494H227.036L224.691 33.6373H224.471V37.0494H224.463ZM224.463 32.88H224.731C225.708 32.88 226.702 32.6927 226.702 31.4875C226.702 30.209 225.765 30.0869 224.723 30.0869H224.463V32.88Z" fill="white"/>
<path d="M233.388 29.2888H234.853C236.018 29.2888 236.962 29.4436 237.883 30.2253C238.77 30.9826 239.169 32.025 239.169 33.1813C239.169 34.3132 238.762 35.3149 237.907 36.0722C236.979 36.8947 236.05 37.0494 234.837 37.0494H233.396V29.2888H233.388ZM234.886 36.2432C235.839 36.2432 236.629 36.1129 237.337 35.437C237.972 34.8426 238.306 34.0282 238.306 33.165C238.306 32.2774 237.964 31.4224 237.296 30.8361C236.588 30.209 235.798 30.0869 234.886 30.0869H234.259V36.2432H234.886Z" fill="white"/>
<path d="M240.888 29.2888H244.919V30.095H241.759V32.3996H244.829V33.2058H241.759V36.2514H244.919V37.0576H240.888V29.2888Z" fill="white"/>
<path d="M180.741 50.2985L179.805 52.5053H178.86L182.443 44.3701L185.936 52.5053H184.984L184.063 50.2985H180.741ZM182.41 46.3815L181.083 49.4922H183.705L182.41 46.3815Z" fill="white"/>
<path d="M188.151 52.4972H187.288V44.7366H188.412C189.886 44.7366 191.254 45.1275 191.254 46.8783C191.254 48.0753 190.497 48.9141 189.308 49.02L191.775 52.4972H190.717L188.371 49.0851H188.151V52.4972ZM188.151 48.3278H188.42C189.397 48.3278 190.391 48.1405 190.391 46.9353C190.391 45.6568 189.454 45.5346 188.412 45.5346H188.151V48.3278Z" fill="white"/>
<path d="M195.244 52.4972H194.381V45.5347H192.508V44.7285H197.142V45.5347H195.244V52.4972Z" fill="white"/>
<path d="M198.534 44.7366H202.557V45.5428H199.397V47.8473H202.467V48.6535H199.397V51.6991H202.557V52.5053H198.534V44.7366Z" fill="white"/>
<path d="M207.541 44.7366H208.542L210.521 48.1975L212.5 44.7366H213.502L210.953 49.1665V52.5053H210.09V49.1665L207.541 44.7366Z" fill="white"/>
<path d="M181.629 67.9533H180.765V60.9908H178.893V60.1846H183.526V60.9908H181.629V67.9533Z" fill="white"/>
<path d="M184.927 60.1926H188.95V60.9988H185.79V63.2952H188.86V64.1014H185.79V67.147H188.95V67.9532H184.927V60.1926Z" fill="white"/>
<path d="M196.865 61.8864C196.246 61.2513 195.391 60.8604 194.495 60.8604C192.769 60.8604 191.368 62.3669 191.368 64.0689C191.368 65.779 192.777 67.2773 194.52 67.2773C195.399 67.2773 196.246 66.862 196.865 66.2513V67.3181C196.197 67.8067 195.366 68.0835 194.544 68.0835C192.353 68.0835 190.497 66.3001 190.497 64.1014C190.497 61.8783 192.321 60.0542 194.544 60.0542C195.407 60.0542 196.173 60.3066 196.865 60.8197V61.8864Z" fill="white"/>
<path d="M198.901 59.8589L204.951 66.2025V60.1928H205.814V68.3035L199.756 61.968V67.9534H198.892V59.8589H198.901Z" fill="white"/>
<path d="M215.66 64.0853C215.66 66.3247 213.827 68.0919 211.612 68.0919C209.397 68.0919 207.565 66.3247 207.565 64.0853C207.565 61.8622 209.397 60.0625 211.612 60.0625C213.819 60.0544 215.66 61.8622 215.66 64.0853ZM208.428 64.0691C208.428 65.8199 209.853 67.2775 211.612 67.2775C213.371 67.2775 214.796 65.8199 214.796 64.0691C214.796 62.3101 213.396 60.8606 211.612 60.8606C209.829 60.8606 208.428 62.3101 208.428 64.0691Z" fill="white"/>
<path d="M218.208 67.147H220.35V67.9532H217.345V60.1926H218.208V67.147Z" fill="white"/>
<path d="M229.43 64.0853C229.43 66.3247 227.598 68.0919 225.383 68.0919C223.168 68.0919 221.335 66.3247 221.335 64.0853C221.335 61.8622 223.168 60.0625 225.383 60.0625C227.598 60.0544 229.43 61.8622 229.43 64.0853ZM222.199 64.0691C222.199 65.8199 223.624 67.2775 225.383 67.2775C227.142 67.2775 228.567 65.8199 228.567 64.0691C228.567 62.3101 227.166 60.8606 225.383 60.8606C223.599 60.8606 222.199 62.3101 222.199 64.0691Z" fill="white"/>
<path d="M238.339 64.0526C238.355 65.1031 238.241 65.9663 237.541 66.7888C236.832 67.6113 235.749 68.0836 234.666 68.0836C232.484 68.0836 230.668 66.2676 230.668 64.0852C230.668 61.8621 232.476 60.0461 234.715 60.0461C236.075 60.0461 237.174 60.6569 237.997 61.7237L237.37 62.31C236.718 61.3979 235.847 60.8442 234.707 60.8442C232.94 60.8442 231.539 62.3344 231.539 64.0852C231.539 64.9077 231.865 65.6895 232.443 66.2758C233.013 66.8458 233.827 67.2611 234.65 67.2611C236.002 67.2611 237.419 66.2758 237.419 64.8344H235.114V64.0282H238.339V64.0526Z" fill="white"/>
<path d="M241.832 58.0185L240.261 59.6064L239.748 59.3214L240.969 57.6357L241.832 58.0185ZM240.969 67.9533H240.106V60.1928H240.969V67.9533Z" fill="white"/>
<path d="M244.226 65.7465L243.29 67.9533H242.337L245.92 59.8181L249.414 67.9533H248.453L247.541 65.7465H244.226ZM245.904 61.8376L244.577 64.9484H247.199L245.904 61.8376Z" fill="white"/>
</g>
<defs>
<clipPath id="clip0_13_1374">
<rect width="250" height="82.2476" fill="white" transform="translate(0 0.591797)"/>
</clipPath>
</defs>
</svg>
