<svg width="48" height="49" viewBox="0 0 48 49" fill="none" xmlns="http://www.w3.org/2000/svg">
<path d="M29 27.7917H33V21.7917H29M36 28.7917C36 29.3222 35.7893 29.8309 35.4142 30.206C35.0391 30.581 34.5304 30.7917 34 30.7917H32.5V33.7917H29.5V30.7917H28C27.4696 30.7917 26.9609 30.581 26.5858 30.206C26.2107 29.8309 26 29.3222 26 28.7917V20.7917C26 20.2613 26.2107 19.7526 26.5858 19.3775C26.9609 19.0025 27.4696 18.7917 28 18.7917H34C34.5304 18.7917 35.0391 19.0025 35.4142 19.3775C35.7893 19.7526 36 20.2613 36 20.7917M22 30.7917H19V26.7917H15V30.7917H12V18.7917H15V23.7917H19V18.7917H22M38 8.79175H10C7.78 8.79175 6 10.5717 6 12.7917V36.7917C6 37.8526 6.42143 38.87 7.17157 39.6202C7.92172 40.3703 8.93913 40.7917 10 40.7917H38C39.0609 40.7917 40.0783 40.3703 40.8284 39.6202C41.5786 38.87 42 37.8526 42 36.7917V12.7917C42 10.5717 40.2 8.79175 38 8.79175Z" fill="white"/>
</svg>
