<svg width="36" height="36" viewBox="0 0 36 36" fill="none" xmlns="http://www.w3.org/2000/svg">
<g opacity="0.5">
<path d="M19.695 33.286L17.25 27.541C19.605 26.671 21.81 25.501 23.85 24.136L19.695 33.286ZM8.46003 18.751L2.71503 16.306L11.865 12.151C10.5 14.191 9.33003 16.396 8.46003 18.751ZM28.83 6.00098C29.25 6.00098 29.625 6.00098 29.94 6.07598C30.195 8.16098 29.91 12.451 24.99 17.371C22.44 19.936 19.395 21.901 15.975 23.206L12.75 20.056C14.13 16.591 16.095 13.546 18.63 11.011C22.77 6.87098 26.46 6.00098 28.83 6.00098ZM28.83 3.00098C25.86 3.00098 21.36 4.03598 16.5 8.89598C13.215 12.181 11.25 15.796 9.97503 18.961C9.55503 20.086 9.84003 21.316 10.665 22.156L13.86 25.336C14.43 25.906 15.195 26.251 15.99 26.251C16.335 26.251 16.695 26.161 17.04 26.026C20.25 24.796 23.82 22.786 27.105 19.501C35.595 11.011 32.415 3.58598 32.415 3.58598C32.415 3.58598 31.05 3.00098 28.83 3.00098ZM21.81 14.191C20.64 13.021 20.64 11.116 21.81 9.94598C22.98 8.77598 24.885 8.77598 26.055 9.94598C27.21 11.116 27.225 13.021 26.055 14.191C24.885 15.361 22.98 15.361 21.81 14.191ZM9.36003 33.001L14.82 27.541C14.31 27.406 13.815 27.181 13.365 26.866L7.24503 33.001H9.36003ZM3.00003 33.001H5.11503L12.27 25.861L10.14 23.746L3.00003 30.886V33.001ZM3.00003 28.756L9.13503 22.636C8.82003 22.186 8.59503 21.706 8.46003 21.181L3.00003 26.641V28.756Z" fill="#EF7D00"/>
</g>
</svg>
