<svg width="36" height="36" viewBox="0 0 36 36" fill="none" xmlns="http://www.w3.org/2000/svg">
<g opacity="0.5">
<path d="M32.565 30.436L30.435 32.566C30.154 32.8454 29.7738 33.0022 29.3775 33.0022C28.9813 33.0022 28.6011 32.8454 28.32 32.566L10.5 14.776C10.0122 14.9173 9.5078 14.993 9.00003 15.001C8.04498 15.0003 7.1039 14.7716 6.25501 14.334C5.40613 13.8964 4.67398 13.2625 4.11942 12.4849C3.56487 11.7074 3.20394 10.8087 3.06664 9.86355C2.92934 8.91842 3.01964 7.95418 3.33003 7.05098L7.14003 10.861L7.93503 10.066L10.065 7.93598L10.86 7.14098L7.05003 3.33098C7.95323 3.02059 8.91748 2.93029 9.8626 3.06759C10.8077 3.20489 11.7064 3.56582 12.484 4.12037C13.2615 4.67492 13.8955 5.40708 14.3331 6.25596C14.7707 7.10485 14.9993 8.04593 15 9.00098C14.992 9.50875 14.9163 10.0132 14.775 10.501L32.565 28.321C32.8444 28.602 33.0012 28.9822 33.0012 29.3785C33.0012 29.7748 32.8444 30.1549 32.565 30.436ZM3.43503 28.321C3.15565 28.602 2.99884 28.9822 2.99884 29.3785C2.99884 29.7748 3.15565 30.1549 3.43503 30.436L5.56503 32.566C5.84607 32.8454 6.22625 33.0022 6.62253 33.0022C7.01881 33.0022 7.39899 32.8454 7.68003 32.566L15.885 24.376L11.64 20.131M30 3.00098L24 6.00098V9.00098L20.745 12.256L23.745 15.256L27 12.001H30L33 6.00098L30 3.00098Z" fill="#EF7D00"/>
</g>
</svg>
